<svg xmlns="http://www.w3.org/2000/svg" width="67" height="69" fill="none" viewBox="0 0 67 69">
  <path fill="#777575" fill-rule="evenodd" d="M21.635 21.582c0-6.69 5.312-12.112 11.865-12.112s11.864 5.423 11.864 12.112c0 6.69-5.311 12.112-11.864 12.112-6.553 0-11.865-5.423-11.865-12.112ZM33.5 13.745c-4.24 0-7.677 3.509-7.677 7.837 0 4.328 3.437 7.837 7.677 7.837s7.677-3.509 7.677-7.837c0-4.328-3.437-7.837-7.677-7.837ZM22.333 42.243c-3.469 0-6.281 2.871-6.281 6.412v3.387c0 .051.037.095.087.104a105.58 105.58 0 0 0 34.722 0 .105.105 0 0 0 .087-.104v-3.387c0-3.541-2.812-6.412-6.281-6.412h-.952a.685.685 0 0 0-.217.035l-2.416.806a23.953 23.953 0 0 1-15.164 0l-2.416-.806a.686.686 0 0 0-.217-.035h-.952Zm-10.468 6.412c0-5.902 4.687-10.687 10.468-10.687h.952c.515 0 1.027.084 1.516.247l2.417.805a19.846 19.846 0 0 0 12.564 0l2.417-.805a4.794 4.794 0 0 1 1.516-.247h.952c5.781 0 10.468 4.785 10.468 10.687v3.387c0 2.146-1.524 3.977-3.599 4.322a109.677 109.677 0 0 1-36.072 0c-2.076-.345-3.6-2.176-3.6-4.322v-3.387Z" clip-rule="evenodd"/>
</svg>
