<svg width="41" height="41" viewBox="0 0 41 41" fill="none" xmlns="http://www.w3.org/2000/svg">
<path d="M20.1583 18.6208C16.2804 17.6129 15.0333 16.5708 15.0333 14.9479C15.0333 13.0858 16.7587 11.7875 19.6458 11.7875C22.6866 11.7875 23.8141 13.2396 23.9166 15.375H27.692C27.5725 12.4367 25.7787 9.7375 22.2083 8.86625V5.125H17.0833V8.815C13.7691 9.5325 11.1041 11.685 11.1041 14.9821C11.1041 18.9283 14.367 20.8929 19.1333 22.0375C23.4041 23.0625 24.2583 24.5658 24.2583 26.1546C24.2583 27.3333 23.4212 29.2125 19.6458 29.2125C16.1266 29.2125 14.7429 27.6408 14.555 25.625H10.7966C11.0016 29.3663 13.8033 31.4675 17.0833 32.1679V35.875H22.2083V32.2021C25.5395 31.57 28.1875 29.6396 28.1875 26.1375C28.1875 21.2858 24.0362 19.6287 20.1583 18.6208Z" fill="black"/>
</svg>
