<svg xmlns="http://www.w3.org/2000/svg" width="42" height="42" fill="none" viewBox="0 0 42 42">
  <path fill="#777575" fill-rule="evenodd" d="M31.475 9.492a94.31 94.31 0 0 0-20.95 0 .6.6 0 0 0-.4.973l6.155 7.608a15.312 15.312 0 0 1 3.408 9.63v5.057l2.625 1.925v-6.981c0-3.506 1.202-6.905 3.407-9.63l6.155-7.609a.6.6 0 0 0-.4-.973Zm-21.242-2.61a97.027 97.027 0 0 1 21.534 0c2.532.284 3.751 3.253 2.149 5.234l-6.155 7.608a12.687 12.687 0 0 0-2.823 7.98v9.571a1.313 1.313 0 0 1-2.09 1.059l-5.25-3.85a1.312 1.312 0 0 1-.535-1.059v-5.721c0-2.905-.997-5.721-2.824-7.98l-6.155-7.608c-1.602-1.98-.383-4.95 2.15-5.233Z" clip-rule="evenodd"/>
</svg>
